<svg width="3000" height="147" viewBox="0 0 3000 147" fill="none" xmlns="http://www.w3.org/2000/svg">
<path d="M96.8073 117H0.981818V0.0545518H27.1636V93.4364H96.8073V117ZM134.225 118.745C115.375 118.745 104.029 110.018 104.029 95.3564C104.029 82.44 113.629 74.4109 132.305 72.4909L169.833 68.6509V65.3345C169.833 53.9891 164.771 50.8473 150.807 50.8473C137.542 50.8473 132.131 54.3382 132.131 64.2873V64.9855H105.775V64.4618C105.775 42.8182 123.927 27.8073 152.727 27.8073C181.876 27.8073 195.665 42.8182 195.665 65.6836V117H171.229V96.9273H169.833C165.818 110.542 153.6 118.745 134.225 118.745ZM130.385 93.6109C130.385 98.3236 134.051 100.244 141.731 100.244C159.535 100.244 169.135 96.0545 169.833 83.6618L139.462 87.1527C133.178 87.6764 130.385 89.4218 130.385 93.6109ZM245.067 118.745C220.456 118.745 208.762 103.56 208.762 84.0109V29.5527H234.944V75.2836C234.944 89.4218 240.878 95.3564 257.46 95.3564C274.565 95.3564 280.675 88.7236 280.675 73.8873V29.5527H306.856V117H282.42V90.2945H281.024C278.755 104.956 268.107 118.745 245.067 118.745ZM346.425 117H320.243V29.5527H344.505V56.4327H346.076C348.345 41.7709 358.818 27.8073 381.683 27.8073C405.596 27.8073 416.941 43.1673 416.941 62.5418V117H390.76V71.2691C390.76 57.3055 385 51.3709 368.941 51.3709C352.36 51.3709 346.425 58.0036 346.425 72.84V117ZM476.79 118.745C446.768 118.745 427.568 100.942 427.568 73.3636C427.568 45.4364 446.768 27.8073 476.79 27.8073C504.892 27.8073 524.092 42.8182 524.092 65.5091V67.9527H498.085V66.5564C498.085 55.3855 489.881 51.3709 476.266 51.3709C460.732 51.3709 453.575 57.1309 453.575 73.3636C453.575 89.4218 460.732 95.1818 476.266 95.1818C489.881 95.1818 498.085 91.1673 498.085 79.9964V78.6H524.092V81.0436C524.092 103.56 504.892 118.745 476.79 118.745ZM561.539 117H535.357V0.0545518H561.539V56.2582H562.935C565.728 41.4218 576.026 27.8073 598.368 27.8073C621.931 27.8073 633.451 43.1673 633.451 63.4145V117H607.269V71.2691C607.269 56.6073 600.986 51.3709 584.579 51.3709C566.949 51.3709 561.539 58.5273 561.539 73.1891V117ZM708.278 117H686.634C666.213 117 653.82 107.4 653.82 85.4073V51.1964H640.031V29.5527H653.82V12.6218H680.002V29.5527H708.278V51.1964H680.002V82.44C680.002 91.1673 683.318 93.4364 692.569 93.4364H708.278V117ZM764.688 118.745C734.84 118.745 714.768 100.942 714.768 73.3636C714.768 45.4364 734.84 27.8073 764.688 27.8073C794.535 27.8073 814.608 45.4364 814.608 73.3636C814.608 100.942 794.535 118.745 764.688 118.745ZM764.688 95.5309C782.317 95.5309 788.6 88.7236 788.6 73.3636C788.6 58.0036 782.317 50.8473 764.688 50.8473C746.884 50.8473 740.775 58.0036 740.775 73.3636C740.775 88.7236 746.884 95.5309 764.688 95.5309ZM864.398 118.745C837.169 118.745 822.158 100.942 822.158 73.3636C822.158 45.4364 836.994 27.8073 863.002 27.8073C883.773 27.8073 894.42 38.1055 897.387 52.7673H898.958V0.0545518H925.14V117H900.704V92.7382H899.307C895.991 110.018 884.471 118.745 864.398 118.745ZM848.689 73.3636C848.689 89.2473 856.544 94.8327 873.3 94.8327C889.882 94.8327 898.958 89.0727 898.958 73.8873V72.4909C898.958 57.3055 890.056 51.72 873.3 51.72C856.544 51.72 848.689 57.3055 848.689 73.3636ZM965.873 118.745C947.022 118.745 935.677 110.018 935.677 95.3564C935.677 82.44 945.277 74.4109 963.953 72.4909L1001.48 68.6509V65.3345C1001.48 53.9891 996.419 50.8473 982.455 50.8473C969.189 50.8473 963.779 54.3382 963.779 64.2873V64.9855H937.422V64.4618C937.422 42.8182 955.575 27.8073 984.375 27.8073C1013.52 27.8073 1027.31 42.8182 1027.31 65.6836V117H1002.88V96.9273H1001.48C997.466 110.542 985.248 118.745 965.873 118.745ZM962.033 93.6109C962.033 98.3236 965.699 100.244 973.379 100.244C991.182 100.244 1000.78 96.0545 1001.48 83.6618L971.109 87.1527C964.826 87.6764 962.033 89.4218 962.033 93.6109ZM1057.34 146.673H1043.03V122.935H1064.5C1070.95 122.935 1073.75 121.189 1075.49 117.349L1032.73 29.5527H1062.4L1080.9 69.5236L1088.23 90.12H1089.98L1096.96 69.3491L1113.54 29.5527H1142.69L1099.41 123.284C1091.03 141.611 1079.33 146.673 1057.34 146.673Z" fill="url(#paint0_linear_1816_958)"/>
<defs>
<linearGradient id="paint0_linear_1816_958" x1="568.5" y1="0" x2="568.5" y2="117" gradientUnits="userSpaceOnUse">
<stop/>
<stop offset="1" stop-color="#4AACE3"/>
</linearGradient>
</defs>
</svg>
